<?xml version="1.0" standalone="no"?>
<!DOCTYPE svg PUBLIC "-//W3C//DTD SVG 20010904//EN"
 "http://www.w3.org/TR/2001/REC-SVG-20010904/DTD/svg10.dtd">
<svg version="1.0" xmlns="http://www.w3.org/2000/svg"
 width="1707.000000pt" height="1707.000000pt" viewBox="0 0 1707.000000 1707.000000"
 preserveAspectRatio="xMidYMid meet">
<metadata>
Created by potrace 1.11, written by Peter Selinger 2001-2013
</metadata>
<g transform="translate(0.000000,1707.000000) scale(0.100000,-0.100000)"
fill="#000000" stroke="none">
<path d="M160 8568 l0 -7888 8328 0 8328 0 0 7885 c0 5555 -3 7885 -10 7886
-6 1 -3754 2 -8329 2 l-8317 2 0 -7887z m12714 7293 c1166 -1 2117 -3 2115 -5
-2 -2 -26 -7 -54 -10 -27 -4 -61 -9 -75 -11 -50 -7 -115 -17 -130 -20 -8 -2
-51 -8 -95 -15 -44 -6 -91 -13 -105 -15 -14 -2 -45 -7 -70 -10 -25 -3 -70 -10
-100 -15 -30 -5 -75 -12 -100 -15 -48 -7 -228 -33 -270 -40 -25 -4 -72 -10
-140 -20 -102 -14 -166 -23 -270 -40 -14 -2 -47 -6 -75 -10 -27 -3 -61 -7 -75
-9 -38 -7 -347 -52 -485 -72 -22 -3 -51 -7 -65 -9 -14 -2 -61 -9 -106 -15 -44
-6 -91 -13 -104 -15 -23 -4 -50 -8 -150 -22 -25 -3 -54 -7 -64 -9 -11 -2 -56
-8 -100 -14 -45 -6 -92 -13 -106 -15 -110 -16 -156 -23 -200 -30 -27 -4 -217
-31 -288 -41 -24 -3 -51 -7 -60 -8 -10 -2 -39 -7 -65 -10 -27 -4 -56 -9 -65
-10 -10 -2 -44 -7 -77 -11 -32 -4 -68 -9 -80 -11 -11 -2 -36 -6 -55 -9 -19 -2
-53 -7 -75 -11 -47 -7 -54 -8 -200 -29 -120 -17 -157 -23 -195 -30 -14 -2 -45
-7 -70 -11 -25 -3 -47 -8 -49 -10 -7 -6 -11 -2024 -25 -12139 l-1 -1079 35 -7
c19 -4 51 -10 70 -13 19 -3 46 -8 60 -10 27 -5 87 -15 135 -22 17 -3 53 -9 80
-14 28 -5 70 -12 95 -15 25 -3 68 -10 95 -15 28 -5 66 -12 85 -14 31 -4 98
-15 415 -67 39 -6 79 -13 90 -14 90 -13 112 -16 125 -20 8 -2 33 -6 55 -10 22
-3 78 -12 125 -20 47 -8 101 -17 120 -19 19 -3 51 -7 70 -11 51 -9 80 -13 130
-20 25 -3 52 -8 60 -10 16 -5 384 -64 435 -70 17 -2 84 -13 150 -24 66 -11
134 -22 150 -24 17 -3 62 -10 100 -17 39 -6 84 -13 100 -16 17 -2 55 -9 85
-14 46 -8 138 -23 285 -46 17 -2 41 -6 55 -9 27 -5 27 -5 215 -35 72 -11 141
-23 155 -25 14 -3 43 -7 65 -10 22 -3 51 -7 65 -10 14 -3 41 -8 60 -10 19 -3
46 -8 58 -11 13 -3 42 -7 64 -10 21 -3 45 -7 51 -8 27 -6 84 -16 107 -20 48
-8 80 -18 80 -26 0 -5 19 -11 43 -15 23 -4 48 -11 56 -15 20 -11 -974 -13
-6544 -13 -5927 0 -6285 1 -6285 14 0 6 4 8 8 5 12 -7 83 19 83 30 -1 9 31 20
86 29 18 3 54 10 80 16 27 6 62 13 78 16 17 2 62 11 100 20 39 8 79 16 90 18
11 3 99 21 195 41 96 19 186 38 200 40 14 3 32 7 40 9 8 3 33 7 55 10 22 4 48
8 57 11 17 5 43 11 90 19 16 3 56 12 90 20 35 8 74 16 88 18 14 3 117 24 230
47 113 23 401 82 640 130 239 49 456 93 483 99 26 6 64 14 85 17 20 3 45 7 54
10 10 3 28 7 40 9 13 3 145 29 294 59 272 55 303 61 359 71 17 3 46 10 65 15
19 5 46 11 60 13 100 18 157 31 166 39 14 10 16 816 18 7887 1 3564 -2 5305
-9 5307 -5 1 -30 5 -55 8 -60 8 -129 17 -159 22 -32 5 -99 14 -136 18 -38 5
-180 26 -220 32 -56 9 -80 13 -130 19 -27 3 -77 10 -110 15 -33 5 -76 11 -95
14 -80 11 -197 28 -220 31 -14 3 -77 12 -140 20 -63 9 -126 18 -140 20 -14 2
-45 7 -70 10 -25 3 -72 10 -105 15 -33 5 -80 12 -105 15 -25 3 -56 8 -70 10
-14 2 -43 7 -65 10 -45 5 -387 54 -425 60 -14 2 -45 7 -70 10 -25 3 -72 10
-105 15 -33 5 -80 12 -105 15 -25 3 -56 7 -69 10 -14 2 -47 7 -75 10 -28 3
-58 8 -66 10 -8 2 -39 7 -69 10 -30 4 -63 9 -75 11 -12 2 -46 7 -76 10 -30 3
-57 7 -60 9 -3 2 -30 6 -60 10 -30 3 -116 15 -190 26 -414 62 -437 65 -480 69
-21 2 -19 4 10 9 19 4 307 8 640 10 333 1 606 3 607 4 1 1 1639 1 3640 0 2001
-1 4592 -2 5757 -2z m-11024 -1435 c58 -6 177 -19 278 -31 20 -2 66 -6 102
-10 36 -3 81 -8 100 -10 19 -2 58 -7 85 -10 28 -2 75 -7 105 -10 30 -4 73 -8
95 -10 62 -7 136 -15 175 -20 19 -2 64 -7 100 -10 36 -4 81 -8 101 -10 20 -3
58 -7 85 -9 27 -3 65 -7 84 -10 19 -3 62 -8 95 -11 33 -3 78 -8 100 -10 22 -3
65 -7 95 -10 30 -3 91 -10 135 -15 44 -5 107 -12 140 -15 33 -3 76 -8 95 -10
98 -12 120 -14 183 -20 37 -4 76 -8 85 -10 9 -1 55 -6 102 -11 47 -4 87 -8 90
-9 3 -1 41 -5 85 -9 44 -5 87 -9 95 -11 8 -2 53 -6 100 -10 47 -4 87 -8 90
-10 3 -2 43 -6 90 -10 47 -4 87 -8 90 -10 3 -2 43 -6 90 -10 47 -4 94 -9 105
-11 20 -4 75 -10 185 -20 30 -2 69 -6 85 -9 17 -2 55 -7 85 -10 30 -3 64 -8
75 -10 11 -2 23 -4 28 -4 34 -4 37 -165 37 -2361 0 -1662 -4 -2402 -13 -2417
-5 -8 -76 -12 -235 -13 -125 -1 -339 -3 -477 -6 -430 -6 -940 -14 -1190 -19
-446 -8 -1238 -18 -1580 -19 l-340 -1 -4 50 c-3 28 -5 1182 -5 2565 -1 2700
-3 2584 48 2608 27 13 50 20 56 17 3 -1 34 -6 70 -9z m13551 -3 c7 -27 2
-4033 -5 -4643 -6 -525 -7 -564 -17 -574 -17 -17 -3821 -32 -3929 -15 -90 13
-97 16 -105 47 -8 31 -8 1546 1 3167 7 1438 8 1471 28 1517 27 63 40 68 271
93 53 5 105 11 170 19 100 13 215 26 265 31 54 6 102 11 170 20 19 2 58 7 85
10 92 9 140 15 175 20 35 4 83 10 170 20 25 3 65 7 90 10 25 3 65 8 90 10 126
14 148 16 183 20 96 12 116 14 177 21 36 3 72 7 80 9 13 2 91 11 180 20 101
11 187 20 260 30 19 2 58 7 85 10 28 3 70 7 95 10 25 3 63 8 85 10 68 8 146
17 253 29 20 3 64 8 97 11 33 3 71 8 85 10 14 2 52 6 85 10 61 6 94 9 225 25
41 5 104 12 140 16 36 3 72 7 80 9 8 2 49 6 90 10 41 4 78 9 81 10 3 2 41 7
85 10 43 4 80 8 81 9 2 1 22 3 47 5 35 1 44 -2 47 -16z m-9891 -6572 c7 -84 5
-4709 -2 -4717 -7 -6 -172 -40 -248 -50 -25 -3 -47 -8 -50 -9 -3 -2 -24 -6
-46 -9 -22 -4 -51 -9 -64 -11 -23 -5 -296 -53 -345 -61 -11 -1 -30 -5 -42 -8
-11 -2 -43 -8 -70 -12 -26 -5 -50 -9 -53 -9 -3 -1 -27 -5 -55 -10 -27 -4 -59
-9 -70 -11 -22 -5 -158 -29 -215 -39 -19 -3 -96 -17 -170 -30 -74 -13 -151
-27 -170 -30 -19 -3 -62 -11 -95 -17 -33 -6 -69 -12 -80 -13 -11 -2 -33 -6
-50 -9 -16 -3 -43 -8 -60 -11 -78 -14 -142 -25 -161 -29 -12 -2 -38 -7 -59
-10 -21 -4 -88 -15 -149 -26 -61 -11 -128 -22 -150 -26 -21 -3 -48 -8 -60 -10
-11 -2 -34 -6 -51 -9 -16 -3 -41 -8 -55 -10 -41 -9 -61 -12 -160 -29 -116 -20
-123 -21 -235 -41 -49 -9 -102 -18 -117 -20 -15 -2 -55 -9 -90 -16 -35 -6 -76
-13 -93 -15 -16 -3 -52 -9 -80 -15 -27 -5 -59 -11 -70 -13 -46 -8 -92 -16
-125 -21 -19 -3 -46 -7 -60 -10 -14 -3 -41 -7 -60 -10 -19 -3 -61 -10 -94 -16
-42 -7 -62 -7 -70 1 -17 17 -15 5132 2 5182 21 59 73 69 532 93 47 3 123 7
170 10 47 3 132 7 190 10 58 3 148 7 200 10 52 3 140 7 195 10 55 3 141 7 190
10 50 2 144 7 210 10 66 3 156 8 200 10 44 2 132 7 195 10 258 12 318 15 390
20 41 2 125 7 185 10 61 3 146 8 190 10 44 3 132 7 195 10 63 3 149 8 190 10
41 2 147 7 235 11 88 3 161 7 162 8 1 0 43 1 95 2 l93 1 5 -56z m6256 -26
c131 -3 311 -7 399 -10 148 -4 321 -9 775 -20 96 -3 274 -7 395 -10 121 -3
294 -7 385 -10 91 -2 282 -7 425 -11 143 -3 307 -7 365 -9 58 -2 231 -6 385
-10 439 -10 466 -12 478 -24 9 -9 13 -648 15 -2628 l3 -2615 -48 6 c-26 3 -57
8 -68 10 -11 2 -47 7 -80 11 -32 4 -66 8 -75 10 -8 1 -58 8 -110 15 -52 6
-106 13 -120 15 -14 2 -45 6 -70 10 -63 8 -190 26 -220 30 -14 2 -45 7 -69 10
-23 3 -55 7 -70 9 -14 3 -48 7 -76 11 -124 15 -203 25 -235 31 -14 2 -61 8
-105 14 -44 6 -91 13 -105 15 -14 2 -46 7 -72 10 -26 3 -78 9 -115 15 -121 17
-137 19 -213 29 -111 15 -170 22 -215 27 -21 2 -46 6 -55 9 -8 2 -41 7 -73 10
-32 4 -66 8 -75 9 -27 6 -94 15 -142 21 -25 3 -56 8 -70 10 -14 2 -47 7 -75
10 -27 3 -61 8 -75 10 -14 2 -63 9 -110 15 -47 6 -96 13 -110 15 -14 2 -63 9
-110 15 -82 11 -107 14 -187 25 -21 3 -49 7 -63 10 -14 2 -47 7 -75 10 -27 3
-95 12 -150 20 -55 8 -138 19 -185 25 -47 6 -96 13 -110 15 -14 3 -49 7 -78
11 -29 3 -63 7 -75 10 -12 2 -44 7 -72 10 -60 8 -81 17 -87 41 -11 42 -14
4317 -4 4551 8 180 24 208 118 221 29 4 56 6 59 5 3 -2 113 -6 245 -9z m3197
-6502 c-7 -2 -19 -2 -25 0 -7 3 -2 5 12 5 14 0 19 -2 13 -5z m-12976 -39 c-3
-3 -12 -4 -19 -1 -8 3 -5 6 6 6 11 1 17 -2 13 -5z m13216 -1 c-7 -2 -19 -2
-25 0 -7 3 -2 5 12 5 14 0 19 -2 13 -5z"/>
</g>
</svg>
